<?xml version="1.0" encoding="UTF-8" standalone="no"?>
<!DOCTYPE svg PUBLIC "-//W3C//DTD SVG 1.1//EN" "http://www.w3.org/Graphics/SVG/1.1/DTD/svg11.dtd">
<svg xmlns:dc="http://purl.org/dc/elements/1.1/" xmlns:xl="http://www.w3.org/1999/xlink" version="1.1" xmlns="http://www.w3.org/2000/svg" viewBox="111 87 809 329" width="809" height="329">
  <defs>
    <marker orient="auto" overflow="visible" markerUnits="strokeWidth" id="FilledArrow_Marker" stroke-linejoin="miter" stroke-miterlimit="10" viewBox="-1 -3 7 6" markerWidth="7" markerHeight="6" color="black">
      <g>
        <path d="M 4.8 0 L 0 -1.8 L 0 1.8 Z" fill="currentColor" stroke="currentColor" stroke-width="1"/>
      </g>
    </marker>
  </defs>
  <g id="Concepts_2" stroke="none" fill-opacity="1" stroke-opacity="1" fill="none" stroke-dasharray="none">
    <title>Concepts 2</title>
    <g id="Concepts_2_Layer_1">
      <title>Layer 1</title>
      <g id="Graphic_27">
        <path d="M 686.25 137.5 L 913.75 137.5 C 916.5114 137.5 918.75 139.73858 918.75 142.5 L 918.75 405.5 C 918.75 408.2614 916.5114 410.5 913.75 410.5 L 686.25 410.5 C 683.4886 410.5 681.25 408.2614 681.25 405.5 L 681.25 142.5 C 681.25 139.73858 683.4886 137.5 686.25 137.5 Z" fill="#c0ffc0"/>
        <path d="M 686.25 137.5 L 913.75 137.5 C 916.5114 137.5 918.75 139.73858 918.75 142.5 L 918.75 405.5 C 918.75 408.2614 916.5114 410.5 913.75 410.5 L 686.25 410.5 C 683.4886 410.5 681.25 408.2614 681.25 405.5 L 681.25 142.5 C 681.25 139.73858 683.4886 137.5 686.25 137.5 Z" stroke="black" stroke-linecap="round" stroke-linejoin="round" stroke-width="2"/>
      </g>
      <g id="Graphic_25">
        <text transform="translate(682.25 88.5)" fill="black">
          <tspan font-family="Fira Sans" font-weight="bold" font-size="16" fill="black" x="0" y="17">Data in storage pool</tspan>
        </text>
      </g>
      <g id="Group_19">
        <g id="Graphic_24">
          <path d="M 698.75 150 L 813.75 150 C 816.5114 150 818.75 152.23858 818.75 155 L 818.75 220 C 818.75 222.76142 816.5114 225 813.75 225 L 698.75 225 C 695.9886 225 693.75 222.76142 693.75 220 L 693.75 155 C 693.75 152.23858 695.9886 150 698.75 150 Z" fill="#80ff80"/>
          <path d="M 698.75 150 L 813.75 150 C 816.5114 150 818.75 152.23858 818.75 155 L 818.75 220 C 818.75 222.76142 816.5114 225 813.75 225 L 698.75 225 C 695.9886 225 693.75 222.76142 693.75 220 L 693.75 155 C 693.75 152.23858 695.9886 150 698.75 150 Z" stroke="black" stroke-linecap="round" stroke-linejoin="round" stroke-width="2"/>
        </g>
        <g id="Line_23">
          <line x1="756.25" y1="150" x2="756.25" y2="225" stroke="black" stroke-opacity=".5" stroke-linecap="round" stroke-linejoin="miter" stroke-width="2"/>
        </g>
        <g id="Line_22">
          <line x1="693.75" y1="187.5" x2="818.75" y2="187.5" stroke="black" stroke-opacity=".5" stroke-linecap="round" stroke-linejoin="miter" stroke-width="2"/>
        </g>
        <g id="Graphic_21">
          <path d="M 756.65 187.6 C 756.65 187.6 750.4 162.75002 740.45 171.2 C 730.5 179.65 756.65 187.6 756.65 187.6 Z" stroke="black" stroke-opacity=".5" stroke-linecap="round" stroke-linejoin="round" stroke-width="2"/>
        </g>
        <g id="Graphic_20">
          <path d="M 757.25 187.5 C 757.25 187.5 763.5 212.35 773.45 203.9 C 783.4 195.45 757.25 187.5 757.25 187.5 Z" stroke="black" stroke-opacity=".5" stroke-linecap="round" stroke-linejoin="round" stroke-width="2"/>
        </g>
      </g>
      <g id="Group_13">
        <g id="Graphic_18">
          <path d="M 786.25 237.5 L 901.25 237.5 C 904.0114 237.5 906.25 239.73858 906.25 242.5 L 906.25 307.5 C 906.25 310.26142 904.0114 312.5 901.25 312.5 L 786.25 312.5 C 783.4886 312.5 781.25 310.26142 781.25 307.5 L 781.25 242.5 C 781.25 239.73858 783.4886 237.5 786.25 237.5 Z" fill="#80ff80"/>
          <path d="M 786.25 237.5 L 901.25 237.5 C 904.0114 237.5 906.25 239.73858 906.25 242.5 L 906.25 307.5 C 906.25 310.26142 904.0114 312.5 901.25 312.5 L 786.25 312.5 C 783.4886 312.5 781.25 310.26142 781.25 307.5 L 781.25 242.5 C 781.25 239.73858 783.4886 237.5 786.25 237.5 Z" stroke="black" stroke-linecap="round" stroke-linejoin="round" stroke-width="2"/>
        </g>
        <g id="Line_17">
          <line x1="843.75" y1="237.5" x2="843.75" y2="312.5" stroke="black" stroke-opacity=".5" stroke-linecap="round" stroke-linejoin="miter" stroke-width="2"/>
        </g>
        <g id="Line_16">
          <line x1="781.25" y1="275" x2="906.25" y2="275" stroke="black" stroke-opacity=".5" stroke-linecap="round" stroke-linejoin="miter" stroke-width="2"/>
        </g>
        <g id="Graphic_15">
          <path d="M 844.15 275.1 C 844.15 275.1 837.9 250.25002 827.95 258.7 C 818 267.15 844.15 275.1 844.15 275.1 Z" stroke="black" stroke-opacity=".5" stroke-linecap="round" stroke-linejoin="round" stroke-width="2"/>
        </g>
        <g id="Graphic_14">
          <path d="M 844.75 275 C 844.75 275 851 299.85 860.95 291.4 C 870.9 282.95 844.75 275 844.75 275 Z" stroke="black" stroke-opacity=".5" stroke-linecap="round" stroke-linejoin="round" stroke-width="2"/>
        </g>
      </g>
      <g id="Graphic_12">
        <path d="M 705.9167 156.5 L 733.4167 156.5 C 736.1781 156.5 738.4167 158.73858 738.4167 161.5 L 738.4167 176.5 C 738.4167 179.26142 736.1781 181.5 733.4167 181.5 L 705.9167 181.5 C 703.15524 181.5 700.9167 179.26142 700.9167 176.5 L 700.9167 161.5 C 700.9167 158.73858 703.15524 156.5 705.9167 156.5 Z" fill="#c0ffc0"/>
        <path d="M 705.9167 156.5 L 733.4167 156.5 C 736.1781 156.5 738.4167 158.73858 738.4167 161.5 L 738.4167 176.5 C 738.4167 179.26142 736.1781 181.5 733.4167 181.5 L 705.9167 181.5 C 703.15524 181.5 700.9167 179.26142 700.9167 176.5 L 700.9167 161.5 C 700.9167 158.73858 703.15524 156.5 705.9167 156.5 Z" stroke="black" stroke-linecap="round" stroke-linejoin="round" stroke-width="2"/>
        <text transform="translate(705.9167 157.5)" fill="black">
          <tspan font-family="Fira Sans" font-size="16" fill="black" x="5.134" y="17">D1</tspan>
        </text>
      </g>
      <g id="Graphic_11">
        <path d="M 780 156.5 L 807.5 156.5 C 810.2614 156.5 812.5 158.73858 812.5 161.5 L 812.5 176.5 C 812.5 179.26142 810.2614 181.5 807.5 181.5 L 780 181.5 C 777.2386 181.5 775 179.26142 775 176.5 L 775 161.5 C 775 158.73858 777.2386 156.5 780 156.5 Z" fill="#c0ffc0"/>
        <path d="M 780 156.5 L 807.5 156.5 C 810.2614 156.5 812.5 158.73858 812.5 161.5 L 812.5 176.5 C 812.5 179.26142 810.2614 181.5 807.5 181.5 L 780 181.5 C 777.2386 181.5 775 179.26142 775 176.5 L 775 161.5 C 775 158.73858 777.2386 156.5 780 156.5 Z" stroke="black" stroke-linecap="round" stroke-linejoin="round" stroke-width="2"/>
        <text transform="translate(780 157.5)" fill="black">
          <tspan font-family="Fira Sans" font-size="16" fill="black" x="4.638" y="17">D2</tspan>
        </text>
      </g>
      <g id="Graphic_10">
        <path d="M 705.9167 194 L 733.4167 194 C 736.1781 194 738.4167 196.23858 738.4167 199 L 738.4167 214 C 738.4167 216.76142 736.1781 219 733.4167 219 L 705.9167 219 C 703.15524 219 700.9167 216.76142 700.9167 214 L 700.9167 199 C 700.9167 196.23858 703.15524 194 705.9167 194 Z" fill="#c0ffc0"/>
        <path d="M 705.9167 194 L 733.4167 194 C 736.1781 194 738.4167 196.23858 738.4167 199 L 738.4167 214 C 738.4167 216.76142 736.1781 219 733.4167 219 L 705.9167 219 C 703.15524 219 700.9167 216.76142 700.9167 214 L 700.9167 199 C 700.9167 196.23858 703.15524 194 705.9167 194 Z" stroke="black" stroke-linecap="round" stroke-linejoin="round" stroke-width="2"/>
        <text transform="translate(705.9167 195)" fill="black">
          <tspan font-family="Fira Sans" font-size="16" fill="black" x="4.686" y="17">D3</tspan>
        </text>
      </g>
      <g id="Graphic_9">
        <path d="M 795.3793 244 L 822.8793 244 C 825.6408 244 827.8793 246.23858 827.8793 249 L 827.8793 264 C 827.8793 266.76142 825.6408 269 822.8793 269 L 795.3793 269 C 792.6179 269 790.3793 266.76142 790.3793 264 L 790.3793 249 C 790.3793 246.23858 792.6179 244 795.3793 244 Z" fill="#c0ffc0"/>
        <path d="M 795.3793 244 L 822.8793 244 C 825.6408 244 827.8793 246.23858 827.8793 249 L 827.8793 264 C 827.8793 266.76142 825.6408 269 822.8793 269 L 795.3793 269 C 792.6179 269 790.3793 266.76142 790.3793 264 L 790.3793 249 C 790.3793 246.23858 792.6179 244 795.3793 244 Z" stroke="black" stroke-linecap="round" stroke-linejoin="round" stroke-width="2"/>
        <text transform="translate(795.3793 245)" fill="black">
          <tspan font-family="Fira Sans" font-size="16" fill="black" x="4.342" y="17">D4</tspan>
        </text>
      </g>
      <g id="Graphic_8">
        <path d="M 865 244 L 892.5 244 C 895.2614 244 897.5 246.23858 897.5 249 L 897.5 264 C 897.5 266.76142 895.2614 269 892.5 269 L 865 269 C 862.2386 269 860 266.76142 860 264 L 860 249 C 860 246.23858 862.2386 244 865 244 Z" fill="#c0ffc0"/>
        <path d="M 865 244 L 892.5 244 C 895.2614 244 897.5 246.23858 897.5 249 L 897.5 264 C 897.5 266.76142 895.2614 269 892.5 269 L 865 269 C 862.2386 269 860 266.76142 860 264 L 860 249 C 860 246.23858 862.2386 244 865 244 Z" stroke="black" stroke-linecap="round" stroke-linejoin="round" stroke-width="2"/>
        <text transform="translate(865 245)" fill="black">
          <tspan font-family="Fira Sans" font-size="16" fill="black" x="4.59" y="17">D5</tspan>
        </text>
      </g>
      <g id="Graphic_4">
        <text transform="translate(829.0833 151)" fill="black">
          <tspan font-family="Fira Sans" font-style="italic" font-size="12" fill="black" x="0" y="13">blocks, pack </tspan>
          <tspan font-family="Fira Sans" font-style="italic" font-size="12" fill="black" x="0" y="32">lists stored in </tspan>
          <tspan font-family="Fira Sans" font-style="italic" font-size="12" fill="black" x="0" y="51">packs</tspan>
        </text>
      </g>
      <g id="Graphic_3">
        <text transform="translate(707.25 273.5)" fill="black">
          <tspan font-family="Fira Sans" font-style="italic" font-size="12" fill="black" x="2.648" y="13">100+ blocks </tspan>
          <tspan font-family="Fira Sans" font-style="italic" font-size="12" fill="black" x="17.9" y="32">per pack</tspan>
        </text>
      </g>
      <g id="Group_87">
        <g id="Graphic_92">
          <path d="M 698.75 323 L 813.75 323 C 816.5114 323 818.75 325.23858 818.75 328 L 818.75 393 C 818.75 395.76142 816.5114 398 813.75 398 L 698.75 398 C 695.9886 398 693.75 395.76142 693.75 393 L 693.75 328 C 693.75 325.23858 695.9886 323 698.75 323 Z" fill="#80ffff"/>
          <path d="M 698.75 323 L 813.75 323 C 816.5114 323 818.75 325.23858 818.75 328 L 818.75 393 C 818.75 395.76142 816.5114 398 813.75 398 L 698.75 398 C 695.9886 398 693.75 395.76142 693.75 393 L 693.75 328 C 693.75 325.23858 695.9886 323 698.75 323 Z" stroke="black" stroke-linecap="round" stroke-linejoin="round" stroke-width="2"/>
        </g>
        <g id="Line_91">
          <line x1="756.25" y1="323" x2="756.25" y2="398" stroke="black" stroke-opacity=".5" stroke-linecap="round" stroke-linejoin="miter" stroke-width="2"/>
        </g>
        <g id="Line_90">
          <line x1="693.75" y1="360.5" x2="818.75" y2="360.5" stroke="black" stroke-opacity=".5" stroke-linecap="round" stroke-linejoin="miter" stroke-width="2"/>
        </g>
        <g id="Graphic_89">
          <path d="M 756.65 360.6 C 756.65 360.6 750.4 335.75 740.45 344.2 C 730.5 352.65 756.65 360.6 756.65 360.6 Z" fill="#80ffff"/>
          <path d="M 756.65 360.6 C 756.65 360.6 750.4 335.75 740.45 344.2 C 730.5 352.65 756.65 360.6 756.65 360.6 Z" stroke="black" stroke-opacity=".5" stroke-linecap="round" stroke-linejoin="round" stroke-width="2"/>
        </g>
        <g id="Graphic_88">
          <path d="M 757.25 360.5 C 757.25 360.5 763.5 385.35 773.45 376.9 C 783.4 368.45 757.25 360.5 757.25 360.5 Z" fill="#80ffff"/>
          <path d="M 757.25 360.5 C 757.25 360.5 763.5 385.35 773.45 376.9 C 783.4 368.45 757.25 360.5 757.25 360.5 Z" stroke="black" stroke-opacity=".5" stroke-linecap="round" stroke-linejoin="round" stroke-width="2"/>
        </g>
      </g>
      <g id="Graphic_86">
        <path d="M 706.1304 338.59566 L 715.5054 331.09566 C 716.392 330.3864 717.49355 330 718.6289 330 L 746.3711 330 C 747.50645 330 748.608 330.3864 749.4946 331.09566 L 758.8696 338.59566 C 761.0259 340.3207 761.3755 343.46717 759.6504 345.62348 C 759.4198 345.9118 759.1579 346.1737 758.8696 346.40434 L 749.4946 353.90434 C 748.608 354.6136 747.50645 355 746.3711 355 L 718.6289 355 C 717.49355 355 716.392 354.6136 715.5054 353.90434 L 706.1304 346.40434 C 703.9741 344.6793 703.6245 341.53283 705.3496 339.37652 C 705.5802 339.0882 705.8421 338.8263 706.1304 338.59566 Z" fill="#c0ffff"/>
        <path d="M 706.1304 338.59566 L 715.5054 331.09566 C 716.392 330.3864 717.49355 330 718.6289 330 L 746.3711 330 C 747.50645 330 748.608 330.3864 749.4946 331.09566 L 758.8696 338.59566 C 761.0259 340.3207 761.3755 343.46717 759.6504 345.62348 C 759.4198 345.9118 759.1579 346.1737 758.8696 346.40434 L 749.4946 353.90434 C 748.608 354.6136 747.50645 355 746.3711 355 L 718.6289 355 C 717.49355 355 716.392 354.6136 715.5054 353.90434 L 706.1304 346.40434 C 703.9741 344.6793 703.6245 341.53283 705.3496 339.37652 C 705.5802 339.0882 705.8421 338.8263 706.1304 338.59566 Z" stroke="black" stroke-linecap="round" stroke-linejoin="round" stroke-width="2"/>
        <text transform="translate(717.472 332)" fill="black">
          <tspan font-family="Fira Sans" font-size="13" fill="black" x="2469136e-19" y="14">meta</tspan>
        </text>
      </g>
      <g id="Graphic_85">
        <path d="M 706.1304 376.09566 L 715.5054 368.59566 C 716.392 367.8864 717.49355 367.5 718.6289 367.5 L 746.3711 367.5 C 747.50645 367.5 748.608 367.8864 749.4946 368.59566 L 758.8696 376.09566 C 761.0259 377.8207 761.3755 380.96717 759.6504 383.12348 C 759.4198 383.4118 759.1579 383.6737 758.8696 383.90434 L 749.4946 391.40434 C 748.608 392.1136 747.50645 392.5 746.3711 392.5 L 718.6289 392.5 C 717.49355 392.5 716.392 392.1136 715.5054 391.40434 L 706.1304 383.90434 C 703.9741 382.1793 703.6245 379.03283 705.3496 376.87652 C 705.5802 376.5882 705.8421 376.3263 706.1304 376.09566 Z" fill="#c0ffff"/>
        <path d="M 706.1304 376.09566 L 715.5054 368.59566 C 716.392 367.8864 717.49355 367.5 718.6289 367.5 L 746.3711 367.5 C 747.50645 367.5 748.608 367.8864 749.4946 368.59566 L 758.8696 376.09566 C 761.0259 377.8207 761.3755 380.96717 759.6504 383.12348 C 759.4198 383.4118 759.1579 383.6737 758.8696 383.90434 L 749.4946 391.40434 C 748.608 392.1136 747.50645 392.5 746.3711 392.5 L 718.6289 392.5 C 717.49355 392.5 716.392 392.1136 715.5054 391.40434 L 706.1304 383.90434 C 703.9741 382.1793 703.6245 379.03283 705.3496 376.87652 C 705.5802 376.5882 705.8421 376.3263 706.1304 376.09566 Z" stroke="black" stroke-linecap="round" stroke-linejoin="round" stroke-width="2"/>
        <text transform="translate(717.472 369.5)" fill="black">
          <tspan font-family="Fira Sans" font-size="13" fill="black" x="2469136e-19" y="14">meta</tspan>
        </text>
      </g>
      <g id="Graphic_84">
        <text transform="translate(826.4167 324)" fill="black">
          <tspan font-family="Fira Sans" font-style="italic" font-size="12" fill="black" x="0" y="13">metadata-only </tspan>
          <tspan font-family="Fira Sans" font-style="italic" font-size="12" fill="black" x="0" y="32">packs backed </tspan>
          <tspan font-family="Fira Sans" font-style="italic" font-size="12" fill="black" x="0" y="51">up with data</tspan>
        </text>
      </g>
      <g id="Graphic_42">
        <path d="M 382.5925 236.39925 C 342.1875 227 358.3 147.87375 422.755 161.375 C 428.735 135.05675 503.6875 139.3285 503.1975 161.375 C 550.195 133.17725 610.255 189.403 569.97 217.60075 C 618.31 231.27175 569.36 304.92925 529.6875 292.625 C 526.5125 313.13325 455.59 320.31 449.365 292.625 C 409.205 322.19125 325.465 276.7315 382.5925 236.39925 Z" fill="#c0ffff"/>
        <path d="M 382.5925 236.39925 C 342.1875 227 358.3 147.87375 422.755 161.375 C 428.735 135.05675 503.6875 139.3285 503.1975 161.375 C 550.195 133.17725 610.255 189.403 569.97 217.60075 C 618.31 231.27175 569.36 304.92925 529.6875 292.625 C 526.5125 313.13325 455.59 320.31 449.365 292.625 C 409.205 322.19125 325.465 276.7315 382.5925 236.39925 Z" stroke="black" stroke-linecap="round" stroke-linejoin="round" stroke-width="2"/>
      </g>
      <g id="Graphic_41">
        <path d="M 175 195.49375 C 175 189.57312 174.20625 188.84062 168.40812 182.98125 L 168.34688 182.92062 C 162.51812 177 162.4575 177 156.47562 177 C 148.51062 177 112.5 177 112.5 177 L 112.5 237.5 C 112.5 238.60457 113.39543 239.5 114.5 239.5 L 173 239.5 C 174.10457 239.5 175 238.60457 175 237.5 L 175 195.49375 Z" fill="#ffc0ff"/>
        <path d="M 175 195.49375 C 175 189.57312 174.20625 188.84062 168.40812 182.98125 L 168.34688 182.92062 C 162.51812 177 162.4575 177 156.47562 177 C 148.51062 177 112.5 177 112.5 177 L 112.5 237.5 C 112.5 238.60457 113.39543 239.5 114.5 239.5 L 173 239.5 C 174.10457 239.5 175 238.60457 175 237.5 L 175 195.49375 Z M 175 195.18875 C 175 189.57312 174.93875 189.57312 162.4575 189.57312 L 162.4575 189.57312 C 162.4575 177.06125 162.4575 177 156.84187 177" stroke="black" stroke-linecap="round" stroke-linejoin="round" stroke-width="2"/>
        <text transform="translate(117.5 195.75)" fill="black">
          <tspan font-family="Fira Sans" font-size="16" fill="black" x="18.886" y="17">A</tspan>
          <tspan font-family="Fira Sans" font-size="12" fill="black" y="17">1</tspan>
        </text>
      </g>
      <g id="Graphic_40">
        <path d="M 418.75 255.75 L 418.75 185.75 C 418.75 180.92 435.55 177 456.25 177 C 476.95 177 493.75 180.92 493.75 185.75 L 493.75 255.75 C 493.75 260.58 476.95 264.5 456.25 264.5 C 435.55 264.5 418.75 260.58 418.75 255.75" fill="#80ffff"/>
        <path d="M 418.75 255.75 L 418.75 185.75 C 418.75 180.92 435.55 177 456.25 177 C 476.95 177 493.75 180.92 493.75 185.75 L 493.75 255.75 C 493.75 260.58 476.95 264.5 456.25 264.5 C 435.55 264.5 418.75 260.58 418.75 255.75 M 418.75 185.75 C 418.75 190.58 435.55 194.5 456.25 194.5 C 476.95 194.5 493.75 190.58 493.75 185.75" stroke="black" stroke-linecap="round" stroke-linejoin="round" stroke-width="2"/>
      </g>
      <g id="Graphic_39">
        <path d="M 175 320.49375 C 175 314.57312 174.20625 313.84062 168.40812 307.98125 L 168.34688 307.92062 C 162.51812 302 162.4575 302 156.47562 302 C 148.51062 302 112.5 302 112.5 302 L 112.5 362.5 C 112.5 363.60457 113.39543 364.5 114.5 364.5 L 173 364.5 C 174.10457 364.5 175 363.60457 175 362.5 L 175 320.49375 Z" fill="#ffc0ff"/>
        <path d="M 175 320.49375 C 175 314.57312 174.20625 313.84062 168.40812 307.98125 L 168.34688 307.92062 C 162.51812 302 162.4575 302 156.47562 302 C 148.51062 302 112.5 302 112.5 302 L 112.5 362.5 C 112.5 363.60457 113.39543 364.5 114.5 364.5 L 173 364.5 C 174.10457 364.5 175 363.60457 175 362.5 L 175 320.49375 Z M 175 320.18875 C 175 314.57312 174.93875 314.57312 162.4575 314.57312 L 162.4575 314.57312 C 162.4575 302.06125 162.4575 302 156.84187 302" stroke="black" stroke-linecap="round" stroke-linejoin="round" stroke-width="2"/>
        <text transform="translate(117.5 320.75)" fill="black">
          <tspan font-family="Fira Sans" font-size="16" fill="black" x="18.646" y="17">B</tspan>
          <tspan font-family="Fira Sans" font-size="12" fill="black" y="17">1</tspan>
        </text>
      </g>
      <g id="Graphic_38">
        <path d="M 204.88043 185.59566 L 214.25543 178.09566 C 215.142 177.3864 216.24355 177 217.3789 177 L 245.1211 177 C 246.25645 177 247.358 177.3864 248.24457 178.09566 L 257.61957 185.59566 C 259.77588 187.3207 260.1255 190.46717 258.40044 192.62348 C 258.16978 192.9118 257.9079 193.17369 257.61957 193.40434 L 248.24457 200.90434 C 247.358 201.6136 246.25645 202 245.1211 202 L 217.3789 202 C 216.24355 202 215.142 201.6136 214.25543 200.90434 L 204.88043 193.40434 C 202.72412 191.6793 202.37451 188.53283 204.09956 186.37652 C 204.33022 186.0882 204.5921 185.82631 204.88043 185.59566 Z" fill="#c0ffff"/>
        <path d="M 204.88043 185.59566 L 214.25543 178.09566 C 215.142 177.3864 216.24355 177 217.3789 177 L 245.1211 177 C 246.25645 177 247.358 177.3864 248.24457 178.09566 L 257.61957 185.59566 C 259.77588 187.3207 260.1255 190.46717 258.40044 192.62348 C 258.16978 192.9118 257.9079 193.17369 257.61957 193.40434 L 248.24457 200.90434 C 247.358 201.6136 246.25645 202 245.1211 202 L 217.3789 202 C 216.24355 202 215.142 201.6136 214.25543 200.90434 L 204.88043 193.40434 C 202.72412 191.6793 202.37451 188.53283 204.09956 186.37652 C 204.33022 186.0882 204.5921 185.82631 204.88043 185.59566 Z" stroke="black" stroke-linecap="round" stroke-linejoin="round" stroke-width="2"/>
        <text transform="translate(216.222 179)" fill="black">
          <tspan font-family="Fira Sans" font-size="13" fill="black" x="2469136e-19" y="14">meta</tspan>
        </text>
      </g>
      <g id="Graphic_37">
        <path d="M 205 214.5 L 232.5 214.5 C 235.26142 214.5 237.5 216.73858 237.5 219.5 L 237.5 234.5 C 237.5 237.26142 235.26142 239.5 232.5 239.5 L 205 239.5 C 202.23858 239.5 200 237.26142 200 234.5 L 200 219.5 C 200 216.73858 202.23858 214.5 205 214.5 Z" fill="#c0ffc0"/>
        <path d="M 205 214.5 L 232.5 214.5 C 235.26142 214.5 237.5 216.73858 237.5 219.5 L 237.5 234.5 C 237.5 237.26142 235.26142 239.5 232.5 239.5 L 205 239.5 C 202.23858 239.5 200 237.26142 200 234.5 L 200 219.5 C 200 216.73858 202.23858 214.5 205 214.5 Z" stroke="black" stroke-linecap="round" stroke-linejoin="round" stroke-width="2"/>
        <text transform="translate(205 215.5)" fill="black">
          <tspan font-family="Fira Sans" font-size="16" fill="black" x="5.134" y="17">D1</tspan>
        </text>
      </g>
      <g id="Graphic_36">
        <path d="M 204.88043 310.59566 L 214.25543 303.09566 C 215.142 302.3864 216.24355 302 217.3789 302 L 245.1211 302 C 246.25645 302 247.358 302.3864 248.24457 303.09566 L 257.61957 310.59566 C 259.77588 312.3207 260.1255 315.46717 258.40044 317.62348 C 258.16978 317.9118 257.9079 318.1737 257.61957 318.40434 L 248.24457 325.90434 C 247.358 326.6136 246.25645 327 245.1211 327 L 217.3789 327 C 216.24355 327 215.142 326.6136 214.25543 325.90434 L 204.88043 318.40434 C 202.72412 316.6793 202.37451 313.53283 204.09956 311.37652 C 204.33022 311.0882 204.5921 310.8263 204.88043 310.59566 Z" fill="#c0ffff"/>
        <path d="M 204.88043 310.59566 L 214.25543 303.09566 C 215.142 302.3864 216.24355 302 217.3789 302 L 245.1211 302 C 246.25645 302 247.358 302.3864 248.24457 303.09566 L 257.61957 310.59566 C 259.77588 312.3207 260.1255 315.46717 258.40044 317.62348 C 258.16978 317.9118 257.9079 318.1737 257.61957 318.40434 L 248.24457 325.90434 C 247.358 326.6136 246.25645 327 245.1211 327 L 217.3789 327 C 216.24355 327 215.142 326.6136 214.25543 325.90434 L 204.88043 318.40434 C 202.72412 316.6793 202.37451 313.53283 204.09956 311.37652 C 204.33022 311.0882 204.5921 310.8263 204.88043 310.59566 Z" stroke="black" stroke-linecap="round" stroke-linejoin="round" stroke-width="2"/>
        <text transform="translate(216.222 304)" fill="black">
          <tspan font-family="Fira Sans" font-size="13" fill="black" x="2469136e-19" y="14">meta</tspan>
        </text>
      </g>
      <g id="Graphic_35">
        <path d="M 205 339.5 L 232.5 339.5 C 235.26142 339.5 237.5 341.73858 237.5 344.5 L 237.5 359.5 C 237.5 362.26142 235.26142 364.5 232.5 364.5 L 205 364.5 C 202.23858 364.5 200 362.26142 200 359.5 L 200 344.5 C 200 341.73858 202.23858 339.5 205 339.5 Z" fill="#c0ffc0"/>
        <path d="M 205 339.5 L 232.5 339.5 C 235.26142 339.5 237.5 341.73858 237.5 344.5 L 237.5 359.5 C 237.5 362.26142 235.26142 364.5 232.5 364.5 L 205 364.5 C 202.23858 364.5 200 362.26142 200 359.5 L 200 344.5 C 200 341.73858 202.23858 339.5 205 339.5 Z" stroke="black" stroke-linecap="round" stroke-linejoin="round" stroke-width="2"/>
        <text transform="translate(205 340.5)" fill="black">
          <tspan font-family="Fira Sans" font-size="16" fill="black" x="4.638" y="17">D2</tspan>
        </text>
      </g>
      <g id="Graphic_34">
        <path d="M 255 352 L 282.5 352 C 285.26142 352 287.5 354.23858 287.5 357 L 287.5 372 C 287.5 374.76142 285.26142 377 282.5 377 L 255 377 C 252.23858 377 250 374.76142 250 372 L 250 357 C 250 354.23858 252.23858 352 255 352 Z" fill="#c0ffc0"/>
        <path d="M 255 352 L 282.5 352 C 285.26142 352 287.5 354.23858 287.5 357 L 287.5 372 C 287.5 374.76142 285.26142 377 282.5 377 L 255 377 C 252.23858 377 250 374.76142 250 372 L 250 357 C 250 354.23858 252.23858 352 255 352 Z" stroke="black" stroke-linecap="round" stroke-linejoin="round" stroke-width="2"/>
        <text transform="translate(255 353)" fill="black">
          <tspan font-family="Fira Sans" font-size="16" fill="black" x="4.686" y="17">D3</tspan>
        </text>
      </g>
      <g id="Graphic_33">
        <path d="M 205 377 L 232.5 377 C 235.26142 377 237.5 379.23858 237.5 382 L 237.5 397 C 237.5 399.7614 235.26142 402 232.5 402 L 205 402 C 202.23858 402 200 399.7614 200 397 L 200 382 C 200 379.23858 202.23858 377 205 377 Z" fill="#c0ffc0"/>
        <path d="M 205 377 L 232.5 377 C 235.26142 377 237.5 379.23858 237.5 382 L 237.5 397 C 237.5 399.7614 235.26142 402 232.5 402 L 205 402 C 202.23858 402 200 399.7614 200 397 L 200 382 C 200 379.23858 202.23858 377 205 377 Z" stroke="black" stroke-linecap="round" stroke-linejoin="round" stroke-width="2"/>
        <text transform="translate(205 378)" fill="black">
          <tspan font-family="Fira Sans" font-size="16" fill="black" x="4.342" y="17">D4</tspan>
        </text>
      </g>
      <g id="Graphic_32">
        <path d="M 255 389.5 L 282.5 389.5 C 285.26142 389.5 287.5 391.73858 287.5 394.5 L 287.5 409.5 C 287.5 412.2614 285.26142 414.5 282.5 414.5 L 255 414.5 C 252.23858 414.5 250 412.2614 250 409.5 L 250 394.5 C 250 391.73858 252.23858 389.5 255 389.5 Z" fill="#c0ffc0"/>
        <path d="M 255 389.5 L 282.5 389.5 C 285.26142 389.5 287.5 391.73858 287.5 394.5 L 287.5 409.5 C 287.5 412.2614 285.26142 414.5 282.5 414.5 L 255 414.5 C 252.23858 414.5 250 412.2614 250 409.5 L 250 394.5 C 250 391.73858 252.23858 389.5 255 389.5 Z" stroke="black" stroke-linecap="round" stroke-linejoin="round" stroke-width="2"/>
        <text transform="translate(255 390.5)" fill="black">
          <tspan font-family="Fira Sans" font-size="16" fill="black" x="4.59" y="17">D5</tspan>
        </text>
      </g>
      <g id="Graphic_31">
        <path d="M 426.63043 210.59566 L 436.00543 203.09566 C 436.892 202.3864 437.99355 202 439.1289 202 L 466.8711 202 C 468.00645 202 469.108 202.3864 469.99457 203.09566 L 479.36957 210.59566 C 481.5259 212.3207 481.8755 215.46717 480.15044 217.62348 C 479.9198 217.9118 479.6579 218.17369 479.36957 218.40434 L 469.99457 225.90434 C 469.108 226.6136 468.00645 227 466.8711 227 L 439.1289 227 C 437.99355 227 436.892 226.6136 436.00543 225.90434 L 426.63043 218.40434 C 424.4741 216.6793 424.1245 213.53283 425.84956 211.37652 C 426.0802 211.0882 426.3421 210.82631 426.63043 210.59566 Z" fill="#c0ffff"/>
        <path d="M 426.63043 210.59566 L 436.00543 203.09566 C 436.892 202.3864 437.99355 202 439.1289 202 L 466.8711 202 C 468.00645 202 469.108 202.3864 469.99457 203.09566 L 479.36957 210.59566 C 481.5259 212.3207 481.8755 215.46717 480.15044 217.62348 C 479.9198 217.9118 479.6579 218.17369 479.36957 218.40434 L 469.99457 225.90434 C 469.108 226.6136 468.00645 227 466.8711 227 L 439.1289 227 C 437.99355 227 436.892 226.6136 436.00543 225.90434 L 426.63043 218.40434 C 424.4741 216.6793 424.1245 213.53283 425.84956 211.37652 C 426.0802 211.0882 426.3421 210.82631 426.63043 210.59566 Z" stroke="black" stroke-linecap="round" stroke-linejoin="round" stroke-width="2"/>
        <text transform="translate(437.972 204)" fill="black">
          <tspan font-family="Fira Sans" font-size="13" fill="black" x="2469136e-19" y="14">meta</tspan>
        </text>
      </g>
      <g id="Graphic_30">
        <path d="M 435.13043 242.09566 L 444.50543 234.59566 C 445.392 233.8864 446.49355 233.5 447.6289 233.5 L 475.3711 233.5 C 476.50645 233.5 477.608 233.8864 478.49457 234.59566 L 487.86957 242.09566 C 490.0259 243.8207 490.3755 246.96717 488.65044 249.12348 C 488.4198 249.4118 488.1579 249.6737 487.86957 249.90434 L 478.49457 257.40434 C 477.608 258.1136 476.50645 258.5 475.3711 258.5 L 447.6289 258.5 C 446.49355 258.5 445.392 258.1136 444.50543 257.40434 L 435.13043 249.90434 C 432.9741 248.1793 432.6245 245.03283 434.34956 242.87652 C 434.5802 242.5882 434.8421 242.32631 435.13043 242.09566 Z" fill="#c0ffff"/>
        <path d="M 435.13043 242.09566 L 444.50543 234.59566 C 445.392 233.8864 446.49355 233.5 447.6289 233.5 L 475.3711 233.5 C 476.50645 233.5 477.608 233.8864 478.49457 234.59566 L 487.86957 242.09566 C 490.0259 243.8207 490.3755 246.96717 488.65044 249.12348 C 488.4198 249.4118 488.1579 249.6737 487.86957 249.90434 L 478.49457 257.40434 C 477.608 258.1136 476.50645 258.5 475.3711 258.5 L 447.6289 258.5 C 446.49355 258.5 445.392 258.1136 444.50543 257.40434 L 435.13043 249.90434 C 432.9741 248.1793 432.6245 245.03283 434.34956 242.87652 C 434.5802 242.5882 434.8421 242.32631 435.13043 242.09566 Z" stroke="black" stroke-linecap="round" stroke-linejoin="round" stroke-width="2"/>
        <text transform="translate(446.472 235.5)" fill="black">
          <tspan font-family="Fira Sans" font-size="13" fill="black" x="2469136e-19" y="14">meta</tspan>
        </text>
      </g>
      <g id="Graphic_26">
        <text transform="translate(351 88.5)" fill="black">
          <tspan font-family="Fira Sans" font-weight="bold" font-size="16" fill="black" x="0" y="17">Metadata in database</tspan>
        </text>
      </g>
      <g id="Graphic_5">
        <text transform="translate(504.25 219.5)" fill="black">
          <tspan font-family="Fira Sans" font-style="italic" font-size="12" fill="black" x="0" y="13">key-value </tspan>
          <tspan font-family="Fira Sans" font-style="italic" font-size="12" fill="black" x="0" y="32">store</tspan>
        </text>
      </g>
      <g id="Graphic_2">
        <text transform="translate(113.5 88.5)" fill="black">
          <tspan font-family="Fira Sans" font-weight="bold" font-size="16" fill="black" x="0" y="17">Version metadata + </tspan>
          <tspan font-family="Fira Sans" font-weight="bold" font-size="16" fill="black" x="0" y="42">pack metadata + </tspan>
          <tspan font-family="Fira Sans" font-weight="bold" font-size="16" fill="black" x="0" y="67">data blocks</tspan>
        </text>
      </g>
      <g id="Graphic_100">
        <text transform="translate(465.40777 370.01554) rotate(4)" fill="black">
          <tspan font-family="Fira Sans" font-size="12" fill="black" x="5222489e-19" y="13">backup</tspan>
        </text>
      </g>
      <g id="Graphic_99">
        <text transform="translate(324.95083 309.56174) rotate(-7)" fill="black">
          <tspan font-family="Fira Sans" font-size="12" fill="black" x="4938272e-19" y="13">primary</tspan>
        </text>
      </g>
      <g id="Line_103">
        <path d="M 288.5 366.56522 C 326.6221 369.46933 415.0958 371.113 511.024 337.5 C 598.0923 306.9915 663.3965 257.2161 696.1578 228.6095" marker-end="url(#FilledArrow_Marker)" stroke="black" stroke-linecap="round" stroke-linejoin="round" stroke-width="2"/>
      </g>
      <g id="Line_102">
        <path d="M 258.08528 319.3124 C 283.3353 322.50965 323.0617 324.233 362.5 312.5 C 397.8607 301.9801 423.9761 283.32416 440.47876 268.44436" marker-end="url(#FilledArrow_Marker)" stroke="black" stroke-linecap="round" stroke-linejoin="round" stroke-width="2"/>
      </g>
      <g id="Line_101">
        <path d="M 251.62803 324.4782 C 283.12303 338.56367 350.56094 364.00597 450 377 C 544.7318 389.3789 638.7902 386.57707 690.9166 383.33966" marker-end="url(#FilledArrow_Marker)" stroke="black" stroke-linecap="round" stroke-linejoin="round" stroke-dasharray="2.0,8.0" stroke-width="2"/>
      </g>
      <g id="Graphic_104">
        <path d="M 255 207.5 L 282.5 207.5 C 285.26142 207.5 287.5 209.73858 287.5 212.5 L 287.5 227.5 C 287.5 230.26142 285.26142 232.5 282.5 232.5 L 255 232.5 C 252.23858 232.5 250 230.26142 250 227.5 L 250 212.5 C 250 209.73858 252.23858 207.5 255 207.5 Z" fill="#c0ffc0"/>
        <path d="M 255 207.5 L 282.5 207.5 C 285.26142 207.5 287.5 209.73858 287.5 212.5 L 287.5 227.5 C 287.5 230.26142 285.26142 232.5 282.5 232.5 L 255 232.5 C 252.23858 232.5 250 230.26142 250 227.5 L 250 212.5 C 250 209.73858 252.23858 207.5 255 207.5 Z" stroke="black" stroke-linecap="round" stroke-linejoin="round" stroke-width="2"/>
        <text transform="translate(255 208.5)" fill="black">
          <tspan font-family="Fira Sans" font-size="16" fill="black" x="2.614" y="17">PL1</tspan>
        </text>
      </g>
      <g id="Graphic_105">
        <path d="M 305 378.75 L 332.5 378.75 C 335.26142 378.75 337.5 380.98858 337.5 383.75 L 337.5 398.75 C 337.5 401.5114 335.26142 403.75 332.5 403.75 L 305 403.75 C 302.23858 403.75 300 401.5114 300 398.75 L 300 383.75 C 300 380.98858 302.23858 378.75 305 378.75 Z" fill="#c0ffc0"/>
        <path d="M 305 378.75 L 332.5 378.75 C 335.26142 378.75 337.5 380.98858 337.5 383.75 L 337.5 398.75 C 337.5 401.5114 335.26142 403.75 332.5 403.75 L 305 403.75 C 302.23858 403.75 300 401.5114 300 398.75 L 300 383.75 C 300 380.98858 302.23858 378.75 305 378.75 Z" stroke="black" stroke-linecap="round" stroke-linejoin="round" stroke-width="2"/>
        <text transform="translate(305 379.75)" fill="black">
          <tspan font-family="Fira Sans" font-size="16" fill="black" x="1.158" y="17">PL2</tspan>
        </text>
      </g>
      <g id="Graphic_106">
        <path d="M 780 194 L 807.5 194 C 810.2614 194 812.5 196.23858 812.5 199 L 812.5 214 C 812.5 216.76142 810.2614 219 807.5 219 L 780 219 C 777.2386 219 775 216.76142 775 214 L 775 199 C 775 196.23858 777.2386 194 780 194 Z" fill="#c0ffc0"/>
        <path d="M 780 194 L 807.5 194 C 810.2614 194 812.5 196.23858 812.5 199 L 812.5 214 C 812.5 216.76142 810.2614 219 807.5 219 L 780 219 C 777.2386 219 775 216.76142 775 214 L 775 199 C 775 196.23858 777.2386 194 780 194 Z" stroke="black" stroke-linecap="round" stroke-linejoin="round" stroke-width="2"/>
        <text transform="translate(780 195)" fill="black">
          <tspan font-family="Fira Sans" font-size="16" fill="black" x="2.614" y="17">PL1</tspan>
        </text>
      </g>
      <g id="Graphic_107">
        <path d="M 795.3793 281.33333 L 822.8793 281.33333 C 825.6408 281.33333 827.8793 283.5719 827.8793 286.33333 L 827.8793 301.33333 C 827.8793 304.09476 825.6408 306.33333 822.8793 306.33333 L 795.3793 306.33333 C 792.6179 306.33333 790.3793 304.09476 790.3793 301.33333 L 790.3793 286.33333 C 790.3793 283.5719 792.6179 281.33333 795.3793 281.33333 Z" fill="#c0ffc0"/>
        <path d="M 795.3793 281.33333 L 822.8793 281.33333 C 825.6408 281.33333 827.8793 283.5719 827.8793 286.33333 L 827.8793 301.33333 C 827.8793 304.09476 825.6408 306.33333 822.8793 306.33333 L 795.3793 306.33333 C 792.6179 306.33333 790.3793 304.09476 790.3793 301.33333 L 790.3793 286.33333 C 790.3793 283.5719 792.6179 281.33333 795.3793 281.33333 Z" stroke="black" stroke-linecap="round" stroke-linejoin="round" stroke-width="2"/>
        <text transform="translate(795.3793 282.33333)" fill="black">
          <tspan font-family="Fira Sans" font-size="16" fill="black" x="1.158" y="17">PL2</tspan>
        </text>
      </g>
    </g>
  </g>
</svg>
