<?xml version="1.0" encoding="UTF-8" standalone="no"?>
<!DOCTYPE svg PUBLIC "-//W3C//DTD SVG 1.1//EN" "http://www.w3.org/Graphics/SVG/1.1/DTD/svg11.dtd">
<svg xmlns:dc="http://purl.org/dc/elements/1.1/" xmlns:xl="http://www.w3.org/1999/xlink" version="1.1" xmlns="http://www.w3.org/2000/svg" viewBox="16 60 789 591" width="789" height="591">
  <defs>
    <linearGradient x1="0" x2="1" id="Gradient" gradientUnits="userSpaceOnUse">
      <stop offset="0" stop-color="#ff2600" stop-opacity=".17623609"/>
      <stop offset="1" stop-color="#8efa00" stop-opacity=".0910477"/>
    </linearGradient>
    <linearGradient id="Obj_Gradient" xl:href="#Gradient" gradientTransform="translate(275 150) rotate(90) scale(75)"/>
    <linearGradient id="Obj_Gradient_2" xl:href="#Gradient" gradientTransform="translate(625 150) rotate(90) scale(75)"/>
    <linearGradient x1="0" x2="1" id="Gradient_2" gradientUnits="userSpaceOnUse">
      <stop offset="0" stop-color="#8efa00" stop-opacity=".2937714"/>
      <stop offset="1" stop-color="#00fdff" stop-opacity=".143595"/>
    </linearGradient>
    <linearGradient id="Obj_Gradient_3" xl:href="#Gradient_2" gradientTransform="translate(450 275) rotate(90) scale(75)"/>
    <linearGradient x1="0" x2="1" id="Gradient_3" gradientUnits="userSpaceOnUse">
      <stop offset="0" stop-color="#00fdff" stop-opacity=".15047089"/>
      <stop offset="1" stop-color="#ff40ff" stop-opacity=".126017"/>
    </linearGradient>
    <linearGradient id="Obj_Gradient_4" xl:href="#Gradient_3" gradientTransform="translate(450 400) rotate(90) scale(75)"/>
    <linearGradient x1="0" x2="1" id="Gradient_4" gradientUnits="userSpaceOnUse">
      <stop offset="0" stop-color="#ff40ff" stop-opacity=".126017"/>
      <stop offset="1" stop-color="#0432ff" stop-opacity=".0997258"/>
    </linearGradient>
    <linearGradient id="Obj_Gradient_5" xl:href="#Gradient_4" gradientTransform="translate(500 525) rotate(90) scale(75)"/>
  </defs>
  <g id="Levels" stroke="none" fill-opacity="1" stroke-opacity="1" fill="none" stroke-dasharray="none">
    <title>Levels</title>
    <g id="Levels_Layer_1">
      <title>Layer 1</title>
      <g id="Graphic_8">
        <path d="M 105 100 L 195 100 C 197.76142 100 200 102.23858 200 105 L 200 145 C 200 147.76142 197.76142 150 195 150 L 105 150 C 102.23858 150 100 147.76142 100 145 L 100 105 C 100 102.23858 102.23858 100 105 100 Z" fill="#ff2600" fill-opacity=".3249679"/>
        <path d="M 105 100 L 195 100 C 197.76142 100 200 102.23858 200 105 L 200 145 C 200 147.76142 197.76142 150 195 150 L 105 150 C 102.23858 150 100 147.76142 100 145 L 100 105 C 100 102.23858 102.23858 100 105 100 Z" stroke="black" stroke-linecap="round" stroke-linejoin="round" stroke-width="2"/>
        <text transform="translate(105 100)" fill="black">
          <tspan font-family="Fira Sans" font-size="16" fill="black" x="29.312" y="17">LTFS </tspan>
          <tspan font-family="Fira Sans" font-size="16" fill="black" x="6.896" y="42">data block</tspan>
        </text>
      </g>
      <g id="Graphic_7">
        <path d="M 205 100 L 295 100 C 297.76142 100 300 102.23858 300 105 L 300 145 C 300 147.76142 297.76142 150 295 150 L 205 150 C 202.23858 150 200 147.76142 200 145 L 200 105 C 200 102.23858 202.23858 100 205 100 Z" fill="#ff2600" fill-opacity=".3249679"/>
        <path d="M 205 100 L 295 100 C 297.76142 100 300 102.23858 300 105 L 300 145 C 300 147.76142 297.76142 150 295 150 L 205 150 C 202.23858 150 200 147.76142 200 145 L 200 105 C 200 102.23858 202.23858 100 205 100 Z" stroke="black" stroke-linecap="round" stroke-linejoin="round" stroke-width="2"/>
        <text transform="translate(205 112.5)" fill="black">
          <tspan font-family="Fira Sans" font-size="16" fill="black" x="6.896" y="17">data block</tspan>
        </text>
      </g>
      <g id="Graphic_6">
        <path d="M 330 100 L 420 100 C 422.7614 100 425 102.23858 425 105 L 425 145 C 425 147.76142 422.7614 150 420 150 L 330 150 C 327.23858 150 325 147.76142 325 145 L 325 105 C 325 102.23858 327.23858 100 330 100 Z" fill="#ff9300" fill-opacity=".5936697"/>
        <path d="M 330 100 L 420 100 C 422.7614 100 425 102.23858 425 105 L 425 145 C 425 147.76142 422.7614 150 420 150 L 330 150 C 327.23858 150 325 147.76142 325 145 L 325 105 C 325 102.23858 327.23858 100 330 100 Z" stroke="black" stroke-linecap="round" stroke-linejoin="round" stroke-width="2"/>
        <text transform="translate(330 100)" fill="black">
          <tspan font-family="Fira Sans" font-size="16" fill="black" x="29.312" y="17">LTFS </tspan>
          <tspan font-family="Fira Sans" font-size="16" fill="black" x="3.424" y="42">index block</tspan>
        </text>
      </g>
      <g id="Graphic_5">
        <path d="M 430 100 L 445 100 C 447.7614 100 450 102.23858 450 105 L 450 145 C 450 147.76142 447.7614 150 445 150 L 430 150 C 427.2386 150 425 147.76142 425 145 L 425 105 C 425 102.23858 427.2386 100 430 100 Z" fill="#fffc00" fill-opacity=".3232288"/>
        <path d="M 430 100 L 445 100 C 447.7614 100 450 102.23858 450 105 L 450 145 C 450 147.76142 447.7614 150 445 150 L 430 150 C 427.2386 150 425 147.76142 425 145 L 425 105 C 425 102.23858 427.2386 100 430 100 Z" stroke="black" stroke-linecap="round" stroke-linejoin="round" stroke-width="2"/>
        <text transform="translate(426 100)" fill="black">
          <tspan font-family="Fira Sans" font-size="16" fill="black" x="7.572" y="17">F</tspan>
          <tspan font-family="Fira Sans" font-size="16" fill="black" x="5.132" y="42">M</tspan>
        </text>
      </g>
      <g id="Graphic_4">
        <path d="M 305 100 L 320 100 C 322.76142 100 325 102.23858 325 105 L 325 145 C 325 147.76142 322.76142 150 320 150 L 305 150 C 302.23858 150 300 147.76142 300 145 L 300 105 C 300 102.23858 302.23858 100 305 100 Z" fill="#fffc00" fill-opacity=".3232288"/>
        <path d="M 305 100 L 320 100 C 322.76142 100 325 102.23858 325 105 L 325 145 C 325 147.76142 322.76142 150 320 150 L 305 150 C 302.23858 150 300 147.76142 300 145 L 300 105 C 300 102.23858 302.23858 100 305 100 Z" stroke="black" stroke-linecap="round" stroke-linejoin="round" stroke-width="2"/>
        <text transform="translate(301 100)" fill="black">
          <tspan font-family="Fira Sans" font-size="16" fill="black" x="7.572" y="17">F</tspan>
          <tspan font-family="Fira Sans" font-size="16" fill="black" x="5.132" y="42">M</tspan>
        </text>
      </g>
      <g id="Graphic_9">
        <path d="M 455 100 L 545 100 C 547.7614 100 550 102.23858 550 105 L 550 145 C 550 147.76142 547.7614 150 545 150 L 455 150 C 452.2386 150 450 147.76142 450 145 L 450 105 C 450 102.23858 452.2386 100 455 100 Z" fill="#ff2600" fill-opacity=".3249679"/>
        <path d="M 455 100 L 545 100 C 547.7614 100 550 102.23858 550 105 L 550 145 C 550 147.76142 547.7614 150 545 150 L 455 150 C 452.2386 150 450 147.76142 450 145 L 450 105 C 450 102.23858 452.2386 100 455 100 Z" stroke="black" stroke-linecap="round" stroke-linejoin="round" stroke-width="2"/>
        <text transform="translate(455 112.5)" fill="black">
          <tspan font-family="Fira Sans" font-size="16" fill="black" x="6.896" y="17">data block</tspan>
        </text>
      </g>
      <g id="Graphic_10">
        <path d="M 555 100 L 645 100 C 647.7614 100 650 102.23858 650 105 L 650 145 C 650 147.76142 647.7614 150 645 150 L 555 150 C 552.2386 150 550 147.76142 550 145 L 550 105 C 550 102.23858 552.2386 100 555 100 Z" fill="#ff2600" fill-opacity=".3249679"/>
        <path d="M 555 100 L 645 100 C 647.7614 100 650 102.23858 650 105 L 650 145 C 650 147.76142 647.7614 150 645 150 L 555 150 C 552.2386 150 550 147.76142 550 145 L 550 105 C 550 102.23858 552.2386 100 555 100 Z" stroke="black" stroke-linecap="round" stroke-linejoin="round" stroke-width="2"/>
        <text transform="translate(555 112.5)" fill="black">
          <tspan font-family="Fira Sans" font-size="16" fill="black" x="6.896" y="17">data block</tspan>
        </text>
      </g>
      <g id="Graphic_11">
        <path d="M 680 100 L 770 100 C 772.7614 100 775 102.23858 775 105 L 775 145 C 775 147.76142 772.7614 150 770 150 L 680 150 C 677.2386 150 675 147.76142 675 145 L 675 105 C 675 102.23858 677.2386 100 680 100 Z" fill="#ff9300" fill-opacity=".5936697"/>
        <path d="M 680 100 L 770 100 C 772.7614 100 775 102.23858 775 105 L 775 145 C 775 147.76142 772.7614 150 770 150 L 680 150 C 677.2386 150 675 147.76142 675 145 L 675 105 C 675 102.23858 677.2386 100 680 100 Z" stroke="black" stroke-linecap="round" stroke-linejoin="round" stroke-width="2"/>
        <text transform="translate(680 112.5)" fill="black">
          <tspan font-family="Fira Sans" font-size="16" fill="black" x="3.424" y="17">index block</tspan>
        </text>
      </g>
      <g id="Graphic_12">
        <path d="M 780 100 L 795 100 C 797.7614 100 800 102.23858 800 105 L 800 145 C 800 147.76142 797.7614 150 795 150 L 780 150 C 777.2386 150 775 147.76142 775 145 L 775 105 C 775 102.23858 777.2386 100 780 100 Z" fill="#fffc00" fill-opacity=".3232288"/>
        <path d="M 780 100 L 795 100 C 797.7614 100 800 102.23858 800 105 L 800 145 C 800 147.76142 797.7614 150 795 150 L 780 150 C 777.2386 150 775 147.76142 775 145 L 775 105 C 775 102.23858 777.2386 100 780 100 Z" stroke="black" stroke-linecap="round" stroke-linejoin="round" stroke-width="2"/>
        <text transform="translate(776 100)" fill="black">
          <tspan font-family="Fira Sans" font-size="16" fill="black" x="7.572" y="17">F</tspan>
          <tspan font-family="Fira Sans" font-size="16" fill="black" x="5.132" y="42">M</tspan>
        </text>
      </g>
      <g id="Graphic_13">
        <path d="M 655 100 L 670 100 C 672.7614 100 675 102.23858 675 105 L 675 145 C 675 147.76142 672.7614 150 670 150 L 655 150 C 652.2386 150 650 147.76142 650 145 L 650 105 C 650 102.23858 652.2386 100 655 100 Z" fill="#fffc00" fill-opacity=".3232288"/>
        <path d="M 655 100 L 670 100 C 672.7614 100 675 102.23858 675 105 L 675 145 C 675 147.76142 672.7614 150 670 150 L 655 150 C 652.2386 150 650 147.76142 650 145 L 650 105 C 650 102.23858 652.2386 100 655 100 Z" stroke="black" stroke-linecap="round" stroke-linejoin="round" stroke-width="2"/>
        <text transform="translate(651 100)" fill="black">
          <tspan font-family="Fira Sans" font-size="16" fill="black" x="7.572" y="17">F</tspan>
          <tspan font-family="Fira Sans" font-size="16" fill="black" x="5.132" y="42">M</tspan>
        </text>
      </g>
      <g id="Graphic_15">
        <path d="M 100 150 L 300 150 L 450 225 L 100 225 Z" fill="url(#Obj_Gradient)"/>
      </g>
      <g id="Graphic_14">
        <path d="M 105 225 L 795 225 C 797.7614 225 800 227.23858 800 230 L 800 270 C 800 272.76142 797.7614 275 795 275 L 105 275 C 102.23858 275 100 272.76142 100 270 L 100 230 C 100 227.23858 102.23858 225 105 225 Z" fill="#8efa00" fill-opacity=".184878"/>
        <path d="M 105 225 L 795 225 C 797.7614 225 800 227.23858 800 230 L 800 270 C 800 272.76142 797.7614 275 795 275 L 105 275 C 102.23858 275 100 272.76142 100 270 L 100 230 C 100 227.23858 102.23858 225 105 225 Z" stroke="black" stroke-linecap="round" stroke-linejoin="round" stroke-width="2"/>
        <text transform="translate(105 237.5)" fill="black">
          <tspan font-family="Fira Sans" font-size="16" fill="black" x="275.224" y="17">LTFS file / Vail pack</tspan>
        </text>
      </g>
      <g id="Graphic_16">
        <path d="M 450 150 L 650 150 L 800 225 L 450 225 Z" fill="url(#Obj_Gradient_2)"/>
      </g>
      <g id="Graphic_28">
        <rect x="100" y="275" width="700" height="75" fill="url(#Obj_Gradient_3)"/>
      </g>
      <g id="Graphic_20">
        <path d="M 105 350 L 157.5 350 C 160.26142 350 162.5 352.23858 162.5 355 L 162.5 395 C 162.5 397.76142 160.26142 400 157.5 400 L 105 400 C 102.23858 400 100 397.76142 100 395 L 100 355 C 100 352.23858 102.23858 350 105 350 Z" fill="#00fdff" fill-opacity=".36178296"/>
        <path d="M 105 350 L 157.5 350 C 160.26142 350 162.5 352.23858 162.5 355 L 162.5 395 C 162.5 397.76142 160.26142 400 157.5 400 L 105 400 C 102.23858 400 100 397.76142 100 395 L 100 355 C 100 352.23858 102.23858 350 105 350 Z" stroke="black" stroke-linecap="round" stroke-linejoin="round" stroke-width="2"/>
        <text transform="translate(105 350)" fill="black">
          <tspan font-family="Fira Sans" font-size="16" fill="black" x="14.082" y="17">TLV </tspan>
          <tspan font-family="Fira Sans" font-size="16" fill="black" x=".618" y="42">header</tspan>
        </text>
      </g>
      <g id="Graphic_18">
        <path d="M 167.5 350 L 407.5 350 C 410.2614 350 412.5 352.23858 412.5 355 L 412.5 395 C 412.5 397.76142 410.2614 400 407.5 400 L 167.5 400 C 164.73858 400 162.5 397.76142 162.5 395 L 162.5 355 C 162.5 352.23858 164.73858 350 167.5 350 Z" fill="#00fdff" fill-opacity=".17618258"/>
        <path d="M 167.5 350 L 407.5 350 C 410.2614 350 412.5 352.23858 412.5 355 L 412.5 395 C 412.5 397.76142 410.2614 400 407.5 400 L 167.5 400 C 164.73858 400 162.5 397.76142 162.5 395 L 162.5 355 C 162.5 352.23858 164.73858 350 167.5 350 Z" stroke="black" stroke-linecap="round" stroke-linejoin="round" stroke-width="2"/>
        <text transform="translate(167.5 362.5)" fill="black">
          <tspan font-family="Fira Sans" font-size="16" fill="black" x="100.312" y="17">value</tspan>
        </text>
      </g>
      <g id="Graphic_34">
        <path d="M 162.5 400 L 412.5 400 L 800 475 L 100 475 Z" fill="url(#Obj_Gradient_4)"/>
      </g>
      <g id="Graphic_33">
        <path d="M 105 475 L 207.5 475 C 210.26142 475 212.5 477.2386 212.5 480 L 212.5 520 C 212.5 522.7614 210.26142 525 207.5 525 L 105 525 C 102.23858 525 100 522.7614 100 520 L 100 480 C 100 477.2386 102.23858 475 105 475 Z" fill="#ff40ff" fill-opacity=".35742188"/>
        <path d="M 105 475 L 207.5 475 C 210.26142 475 212.5 477.2386 212.5 480 L 212.5 520 C 212.5 522.7614 210.26142 525 207.5 525 L 105 525 C 102.23858 525 100 522.7614 100 520 L 100 480 C 100 477.2386 102.23858 475 105 475 Z" stroke="black" stroke-linecap="round" stroke-linejoin="round" stroke-width="2"/>
        <text transform="translate(105 487.5)" fill="black">
          <tspan font-family="Fira Sans" font-size="16" fill="black" x="3.81" y="17">value header</tspan>
        </text>
      </g>
      <g id="Graphic_32">
        <path d="M 217.5 475 L 370 475 C 372.76142 475 375 477.2386 375 480 L 375 520 C 375 522.7614 372.76142 525 370 525 L 217.5 525 C 214.73858 525 212.5 522.7614 212.5 520 L 212.5 480 C 212.5 477.2386 214.73858 475 217.5 475 Z" fill="#ff40ff" fill-opacity=".20325878"/>
        <path d="M 217.5 475 L 370 475 C 372.76142 475 375 477.2386 375 480 L 375 520 C 375 522.7614 372.76142 525 370 525 L 217.5 525 C 214.73858 525 212.5 522.7614 212.5 520 L 212.5 480 C 212.5 477.2386 214.73858 475 217.5 475 Z" stroke="black" stroke-linecap="round" stroke-linejoin="round" stroke-width="2"/>
        <text transform="translate(217.5 487.5)" fill="black">
          <tspan font-family="Fira Sans" font-size="16" fill="black" x="19.826" y="17">structured data</tspan>
        </text>
      </g>
      <g id="Graphic_36">
        <text transform="translate(100 155)" fill="black">
          <tspan font-family="Fira Sans" font-style="italic" font-size="12" fill="black" x="0" y="13">1 or more LTFS data extents; data block len = LTFS block size (example: 1M)</tspan>
        </text>
      </g>
      <g id="Graphic_37">
        <text transform="translate(100 280)" fill="black">
          <tspan font-family="Fira Sans" font-style="italic" font-size="12" fill="black" x="0" y="13">Vail pack len = based on tape size, commonly multiple gigabytes in size</tspan>
          <tspan font-family="Fira Sans" font-style="italic" font-size="12" fill="black" x="0" y="32">Vail data block len = 10MB default (pre-compression), 100+ blocks per pack</tspan>
        </text>
      </g>
      <g id="Line_39">
        <path d="M 450 87.5 L 450 75 L 800 75 L 800 87.5" stroke="black" stroke-linecap="round" stroke-linejoin="miter" stroke-width="1.5"/>
      </g>
      <g id="Graphic_40">
        <text transform="translate(575.272 65.5)" fill="black">
          <tspan font-family="Fira Sans" font-style="italic" font-size="12" fill="black" x="0" y="13">LTFS data extent</tspan>
        </text>
      </g>
      <g id="Graphic_45">
        <text transform="translate(100 530)" fill="black">
          <tspan font-family="Fira Sans" font-style="italic" font-size="12" fill="black" x="0" y="13">header: version, compression, encryption info</tspan>
        </text>
      </g>
      <g id="Graphic_46">
        <text transform="translate(100 405)" fill="black">
          <tspan font-family="Fira Sans" font-style="italic" font-size="12" fill="black" x="0" y="13">header: type, version, length, hash codes</tspan>
        </text>
      </g>
      <g id="Graphic_48">
        <text transform="translate(17.276 100)" fill="black">
          <tspan font-family="Fira Sans" font-weight="bold" font-size="16" fill="black" x="18474111e-20" y="17">level 0</tspan>
        </text>
      </g>
      <g id="Graphic_49">
        <text transform="translate(17.276 225)" fill="black">
          <tspan font-family="Fira Sans" font-weight="bold" font-size="16" fill="black" x="0" y="17">level 1</tspan>
        </text>
      </g>
      <g id="Graphic_50">
        <text transform="translate(17.276 350)" fill="black">
          <tspan font-family="Fira Sans" font-weight="bold" font-size="16" fill="black" x="1278977e-19" y="17">level 2</tspan>
        </text>
      </g>
      <g id="Graphic_51">
        <text transform="translate(17.276 475)" fill="black">
          <tspan font-family="Fira Sans" font-weight="bold" font-size="16" fill="black" x="0" y="17">level 3</tspan>
        </text>
      </g>
      <g id="Graphic_53">
        <path d="M 417.5 350 L 470 350 C 472.7614 350 475 352.23858 475 355 L 475 395 C 475 397.76142 472.7614 400 470 400 L 417.5 400 C 414.7386 400 412.5 397.76142 412.5 395 L 412.5 355 C 412.5 352.23858 414.7386 350 417.5 350 Z" fill="#00fdff" fill-opacity=".361783"/>
        <path d="M 417.5 350 L 470 350 C 472.7614 350 475 352.23858 475 355 L 475 395 C 475 397.76142 472.7614 400 470 400 L 417.5 400 C 414.7386 400 412.5 397.76142 412.5 395 L 412.5 355 C 412.5 352.23858 414.7386 350 417.5 350 Z" stroke="black" stroke-linecap="round" stroke-linejoin="round" stroke-width="2"/>
        <text transform="translate(417.5 350)" fill="black">
          <tspan font-family="Fira Sans" font-size="16" fill="black" x="14.082" y="17">TLV </tspan>
          <tspan font-family="Fira Sans" font-size="16" fill="black" x=".618" y="42">header</tspan>
        </text>
      </g>
      <g id="Graphic_54">
        <path d="M 480 350 L 570 350 C 572.7614 350 575 352.23858 575 355 L 575 395 C 575 397.76142 572.7614 400 570 400 L 480 400 C 477.2386 400 475 397.76142 475 395 L 475 355 C 475 352.23858 477.2386 350 480 350 Z" fill="#00fdff" fill-opacity=".176183"/>
        <path d="M 480 350 L 570 350 C 572.7614 350 575 352.23858 575 355 L 575 395 C 575 397.76142 572.7614 400 570 400 L 480 400 C 477.2386 400 475 397.76142 475 395 L 475 355 C 475 352.23858 477.2386 350 480 350 Z" stroke="black" stroke-linecap="round" stroke-linejoin="round" stroke-width="2"/>
        <text transform="translate(480 362.5)" fill="black">
          <tspan font-family="Fira Sans" font-size="16" fill="black" x="25.312" y="17">value</tspan>
        </text>
      </g>
      <g id="Graphic_55">
        <path d="M 580 350 L 632.5 350 C 635.2614 350 637.5 352.23858 637.5 355 L 637.5 395 C 637.5 397.76142 635.2614 400 632.5 400 L 580 400 C 577.2386 400 575 397.76142 575 395 L 575 355 C 575 352.23858 577.2386 350 580 350 Z" fill="#00fdff" fill-opacity=".361783"/>
        <path d="M 580 350 L 632.5 350 C 635.2614 350 637.5 352.23858 637.5 355 L 637.5 395 C 637.5 397.76142 635.2614 400 632.5 400 L 580 400 C 577.2386 400 575 397.76142 575 395 L 575 355 C 575 352.23858 577.2386 350 580 350 Z" stroke="black" stroke-linecap="round" stroke-linejoin="round" stroke-width="2"/>
        <text transform="translate(580 350)" fill="black">
          <tspan font-family="Fira Sans" font-size="16" fill="black" x="14.082" y="17">TLV </tspan>
          <tspan font-family="Fira Sans" font-size="16" fill="black" x=".618" y="42">header</tspan>
        </text>
      </g>
      <g id="Graphic_56">
        <path d="M 642.5 350 L 795 350 C 797.7614 350 800 352.23858 800 355 L 800 395 C 800 397.76142 797.7614 400 795 400 L 642.5 400 C 639.7386 400 637.5 397.76142 637.5 395 L 637.5 355 C 637.5 352.23858 639.7386 350 642.5 350 Z" fill="#00fdff" fill-opacity=".176183"/>
        <path d="M 642.5 350 L 795 350 C 797.7614 350 800 352.23858 800 355 L 800 395 C 800 397.76142 797.7614 400 795 400 L 642.5 400 C 639.7386 400 637.5 397.76142 637.5 395 L 637.5 355 C 637.5 352.23858 639.7386 350 642.5 350 Z" stroke="black" stroke-linecap="round" stroke-linejoin="round" stroke-width="2"/>
        <text transform="translate(642.5 362.5)" fill="black">
          <tspan font-family="Fira Sans" font-size="16" fill="black" x="56.562" y="17">value</tspan>
        </text>
      </g>
      <g id="Graphic_57">
        <path d="M 380 475 L 795 475 C 797.7614 475 800 477.2386 800 480 L 800 520 C 800 522.7614 797.7614 525 795 525 L 380 525 C 377.23858 525 375 522.7614 375 520 L 375 480 C 375 477.2386 377.23858 475 380 475 Z" fill="#ff40ff" fill-opacity=".203259"/>
        <path d="M 380 475 L 795 475 C 797.7614 475 800 477.2386 800 480 L 800 520 C 800 522.7614 797.7614 525 795 525 L 380 525 C 377.23858 525 375 522.7614 375 520 L 375 480 C 375 477.2386 377.23858 475 380 475 Z" stroke="black" stroke-linecap="round" stroke-linejoin="round" stroke-width="2"/>
        <text transform="translate(380 487.5)" fill="black">
          <tspan font-family="Fira Sans" font-size="16" fill="black" x="135.036" y="17">raw bytes [optional]</tspan>
        </text>
      </g>
      <g id="Graphic_58">
        <path d="M 205 600 L 320 600 C 322.76142 600 325 602.2386 325 605 L 325 645 C 325 647.7614 322.76142 650 320 650 L 205 650 C 202.23858 650 200 647.7614 200 645 L 200 605 C 200 602.2386 202.23858 600 205 600 Z" fill="#0432ff" fill-opacity=".14939466"/>
        <path d="M 205 600 L 320 600 C 322.76142 600 325 602.2386 325 605 L 325 645 C 325 647.7614 322.76142 650 320 650 L 205 650 C 202.23858 650 200 647.7614 200 645 L 200 605 C 200 602.2386 202.23858 600 205 600 Z" stroke="black" stroke-linecap="round" stroke-linejoin="round" stroke-width="2"/>
        <text transform="translate(205 600)" fill="black">
          <tspan font-family="Fira Sans" font-size="16" fill="black" x="30.884" y="17">version </tspan>
          <tspan font-family="Fira Sans" font-size="16" fill="black" x="22.628" y="42">metadata</tspan>
        </text>
      </g>
      <g id="Graphic_59">
        <path d="M 392.5 600 L 507.5 600 C 510.2614 600 512.5 602.2386 512.5 605 L 512.5 645 C 512.5 647.7614 510.2614 650 507.5 650 L 392.5 650 C 389.73858 650 387.5 647.7614 387.5 645 L 387.5 605 C 387.5 602.2386 389.73858 600 392.5 600 Z" fill="#0432ff" fill-opacity=".14939466"/>
        <path d="M 392.5 600 L 507.5 600 C 510.2614 600 512.5 602.2386 512.5 605 L 512.5 645 C 512.5 647.7614 510.2614 650 507.5 650 L 392.5 650 C 389.73858 650 387.5 647.7614 387.5 645 L 387.5 605 C 387.5 602.2386 389.73858 600 392.5 600 Z" stroke="black" stroke-linecap="round" stroke-linejoin="round" stroke-width="2"/>
        <text transform="translate(392.5 612.5)" fill="black">
          <tspan font-family="Fira Sans" font-size="16" fill="black" x="3.484" y="17">pack metadata</tspan>
        </text>
      </g>
      <g id="Graphic_60">
        <path d="M 580 600 L 695 600 C 697.7614 600 700 602.2386 700 605 L 700 645 C 700 647.7614 697.7614 650 695 650 L 580 650 C 577.2386 650 575 647.7614 575 645 L 575 605 C 575 602.2386 577.2386 600 580 600 Z" fill="#0432ff" fill-opacity=".14939466"/>
        <path d="M 580 600 L 695 600 C 697.7614 600 700 602.2386 700 605 L 700 645 C 700 647.7614 697.7614 650 695 650 L 580 650 C 577.2386 650 575 647.7614 575 645 L 575 605 C 575 602.2386 577.2386 600 580 600 Z" stroke="black" stroke-linecap="round" stroke-linejoin="round" stroke-width="2"/>
        <text transform="translate(580 612.5)" fill="black">
          <tspan font-family="Fira Sans" font-size="16" fill="black" x="19.396" y="17">data block</tspan>
        </text>
      </g>
      <g id="Graphic_62">
        <text transform="translate(16.94 600)" fill="black">
          <tspan font-family="Fira Sans" font-weight="bold" font-size="16" fill="black" x="7105427e-19" y="17">level 4</tspan>
        </text>
      </g>
      <g id="Graphic_63">
        <path d="M 212.5 525 L 800 525 L 700 600 L 575 600 L 544 550 L 512.5 600 L 387.5 600 L 356.5 550 L 325 600 L 200 600 Z" fill="url(#Obj_Gradient_5)"/>
      </g>
      <g id="Graphic_64">
        <text transform="translate(348.538 612.5)" fill="black">
          <tspan font-family="Fira Sans" font-style="italic" font-weight="bold" font-size="16" fill="black" x="0" y="17">or</tspan>
        </text>
      </g>
      <g id="Graphic_65">
        <text transform="translate(536.038 612.5)" fill="black">
          <tspan font-family="Fira Sans" font-style="italic" font-weight="bold" font-size="16" fill="black" x="0" y="17">or</tspan>
        </text>
      </g>
    </g>
  </g>
</svg>
