<?xml version="1.0" encoding="UTF-8" standalone="no"?>
<!DOCTYPE svg PUBLIC "-//W3C//DTD SVG 1.1//EN" "http://www.w3.org/Graphics/SVG/1.1/DTD/svg11.dtd">
<svg xmlns:dc="http://purl.org/dc/elements/1.1/" xmlns:xl="http://www.w3.org/1999/xlink" version="1.1" xmlns="http://www.w3.org/2000/svg" viewBox="108 261 493 65" width="493" height="65">
  <defs/>
  <g id="TLV" stroke="none" fill-opacity="1" stroke-opacity="1" fill="none" stroke-dasharray="none">
    <title>TLV</title>
    <g id="TLV_Layer_1">
      <title>Layer 1</title>
      <g id="Graphic_3">
        <path d="M 190.5 262.5 L 209.5 262.5 C 211.15685 262.5 212.5 263.84315 212.5 265.5 L 212.5 284.5 C 212.5 286.15685 211.15685 287.5 209.5 287.5 L 190.5 287.5 C 188.84315 287.5 187.5 286.15685 187.5 284.5 L 187.5 265.5 C 187.5 263.84315 188.84315 262.5 190.5 262.5 Z" fill="white"/>
        <path d="M 190.5 262.5 L 209.5 262.5 C 211.15685 262.5 212.5 263.84315 212.5 265.5 L 212.5 284.5 C 212.5 286.15685 211.15685 287.5 209.5 287.5 L 190.5 287.5 C 188.84315 287.5 187.5 286.15685 187.5 284.5 L 187.5 265.5 C 187.5 263.84315 188.84315 262.5 190.5 262.5 Z" stroke="black" stroke-linecap="round" stroke-linejoin="round" stroke-width="2"/>
        <text transform="translate(189.2 268)" fill="black">
          <tspan font-family="Fira Code" font-size="12" fill="black" x="0" y="11">x89</tspan>
        </text>
      </g>
      <g id="Graphic_4">
        <path d="M 215.5 262.5 L 234.5 262.5 C 236.15685 262.5 237.5 263.84315 237.5 265.5 L 237.5 284.5 C 237.5 286.15685 236.15685 287.5 234.5 287.5 L 215.5 287.5 C 213.84315 287.5 212.5 286.15685 212.5 284.5 L 212.5 265.5 C 212.5 263.84315 213.84315 262.5 215.5 262.5 Z" fill="white"/>
        <path d="M 215.5 262.5 L 234.5 262.5 C 236.15685 262.5 237.5 263.84315 237.5 265.5 L 237.5 284.5 C 237.5 286.15685 236.15685 287.5 234.5 287.5 L 215.5 287.5 C 213.84315 287.5 212.5 286.15685 212.5 284.5 L 212.5 265.5 C 212.5 263.84315 213.84315 262.5 215.5 262.5 Z" stroke="black" stroke-linecap="round" stroke-linejoin="round" stroke-width="2"/>
        <text transform="translate(221.4 268)" fill="black">
          <tspan font-family="Fira Code" font-size="12" fill="black" x="36370906e-20" y="11">T</tspan>
        </text>
      </g>
      <g id="Graphic_5">
        <path d="M 240.5 262.5 L 259.5 262.5 C 261.15685 262.5 262.5 263.84315 262.5 265.5 L 262.5 284.5 C 262.5 286.15685 261.15685 287.5 259.5 287.5 L 240.5 287.5 C 238.84315 287.5 237.5 286.15685 237.5 284.5 L 237.5 265.5 C 237.5 263.84315 238.84315 262.5 240.5 262.5 Z" fill="white"/>
        <path d="M 240.5 262.5 L 259.5 262.5 C 261.15685 262.5 262.5 263.84315 262.5 265.5 L 262.5 284.5 C 262.5 286.15685 261.15685 287.5 259.5 287.5 L 240.5 287.5 C 238.84315 287.5 237.5 286.15685 237.5 284.5 L 237.5 265.5 C 237.5 263.84315 238.84315 262.5 240.5 262.5 Z" stroke="black" stroke-linecap="round" stroke-linejoin="round" stroke-width="2"/>
        <text transform="translate(246.4 268)" fill="black">
          <tspan font-family="Fira Code" font-size="12" fill="black" x="36370906e-20" y="11">L</tspan>
        </text>
      </g>
      <g id="Graphic_6">
        <path d="M 265.5 262.5 L 284.5 262.5 C 286.15685 262.5 287.5 263.84315 287.5 265.5 L 287.5 284.5 C 287.5 286.15685 286.15685 287.5 284.5 287.5 L 265.5 287.5 C 263.84315 287.5 262.5 286.15685 262.5 284.5 L 262.5 265.5 C 262.5 263.84315 263.84315 262.5 265.5 262.5 Z" fill="white"/>
        <path d="M 265.5 262.5 L 284.5 262.5 C 286.15685 262.5 287.5 263.84315 287.5 265.5 L 287.5 284.5 C 287.5 286.15685 286.15685 287.5 284.5 287.5 L 265.5 287.5 C 263.84315 287.5 262.5 286.15685 262.5 284.5 L 262.5 265.5 C 262.5 263.84315 263.84315 262.5 265.5 262.5 Z" stroke="black" stroke-linecap="round" stroke-linejoin="round" stroke-width="2"/>
        <text transform="translate(271.4 268)" fill="black">
          <tspan font-family="Fira Code" font-size="12" fill="black" x="36370906e-20" y="11">V</tspan>
        </text>
      </g>
      <g id="Graphic_7">
        <path d="M 290.5 262.5 L 309.5 262.5 C 311.15685 262.5 312.5 263.84315 312.5 265.5 L 312.5 284.5 C 312.5 286.15685 311.15685 287.5 309.5 287.5 L 290.5 287.5 C 288.84315 287.5 287.5 286.15685 287.5 284.5 L 287.5 265.5 C 287.5 263.84315 288.84315 262.5 290.5 262.5 Z" fill="white"/>
        <path d="M 290.5 262.5 L 309.5 262.5 C 311.15685 262.5 312.5 263.84315 312.5 265.5 L 312.5 284.5 C 312.5 286.15685 311.15685 287.5 309.5 287.5 L 290.5 287.5 C 288.84315 287.5 287.5 286.15685 287.5 284.5 L 287.5 265.5 C 287.5 263.84315 288.84315 262.5 290.5 262.5 Z" stroke="black" stroke-linecap="round" stroke-linejoin="round" stroke-width="2"/>
        <text transform="translate(289.2 268)" fill="black">
          <tspan font-family="Fira Code" font-size="12" fill="black" x="0" y="11">x0D</tspan>
        </text>
      </g>
      <g id="Graphic_8">
        <path d="M 315.5 262.5 L 334.5 262.5 C 336.15685 262.5 337.5 263.84315 337.5 265.5 L 337.5 284.5 C 337.5 286.15685 336.15685 287.5 334.5 287.5 L 315.5 287.5 C 313.84315 287.5 312.5 286.15685 312.5 284.5 L 312.5 265.5 C 312.5 263.84315 313.84315 262.5 315.5 262.5 Z" fill="white"/>
        <path d="M 315.5 262.5 L 334.5 262.5 C 336.15685 262.5 337.5 263.84315 337.5 265.5 L 337.5 284.5 C 337.5 286.15685 336.15685 287.5 334.5 287.5 L 315.5 287.5 C 313.84315 287.5 312.5 286.15685 312.5 284.5 L 312.5 265.5 C 312.5 263.84315 313.84315 262.5 315.5 262.5 Z" stroke="black" stroke-linecap="round" stroke-linejoin="round" stroke-width="2"/>
        <text transform="translate(314.2 268)" fill="black">
          <tspan font-family="Fira Code" font-size="12" fill="black" x="0" y="11">x0A</tspan>
        </text>
      </g>
      <g id="Graphic_9">
        <path d="M 340.5 262.5 L 359.5 262.5 C 361.15685 262.5 362.5 263.84315 362.5 265.5 L 362.5 284.5 C 362.5 286.15685 361.15685 287.5 359.5 287.5 L 340.5 287.5 C 338.84315 287.5 337.5 286.15685 337.5 284.5 L 337.5 265.5 C 337.5 263.84315 338.84315 262.5 340.5 262.5 Z" fill="white"/>
        <path d="M 340.5 262.5 L 359.5 262.5 C 361.15685 262.5 362.5 263.84315 362.5 265.5 L 362.5 284.5 C 362.5 286.15685 361.15685 287.5 359.5 287.5 L 340.5 287.5 C 338.84315 287.5 337.5 286.15685 337.5 284.5 L 337.5 265.5 C 337.5 263.84315 338.84315 262.5 340.5 262.5 Z" stroke="black" stroke-linecap="round" stroke-linejoin="round" stroke-width="2"/>
        <text transform="translate(339.2 268)" fill="black">
          <tspan font-family="Fira Code" font-size="12" fill="black" x="0" y="11">x1A</tspan>
        </text>
      </g>
      <g id="Graphic_10">
        <path d="M 365.5 262.5 L 384.5 262.5 C 386.15685 262.5 387.5 263.84315 387.5 265.5 L 387.5 284.5 C 387.5 286.15685 386.15685 287.5 384.5 287.5 L 365.5 287.5 C 363.84315 287.5 362.5 286.15685 362.5 284.5 L 362.5 265.5 C 362.5 263.84315 363.84315 262.5 365.5 262.5 Z" fill="white"/>
        <path d="M 365.5 262.5 L 384.5 262.5 C 386.15685 262.5 387.5 263.84315 387.5 265.5 L 387.5 284.5 C 387.5 286.15685 386.15685 287.5 384.5 287.5 L 365.5 287.5 C 363.84315 287.5 362.5 286.15685 362.5 284.5 L 362.5 265.5 C 362.5 263.84315 363.84315 262.5 365.5 262.5 Z" stroke="black" stroke-linecap="round" stroke-linejoin="round" stroke-width="2"/>
        <text transform="translate(364.2 268)" fill="black">
          <tspan font-family="Fira Code" font-size="12" fill="black" x="0" y="11">x0A</tspan>
        </text>
      </g>
      <g id="Graphic_29">
        <path d="M 403 300 L 422 300 C 423.65685 300 425 301.34315 425 303 L 425 322 C 425 323.65685 423.65685 325 422 325 L 403 325 C 401.34315 325 400 323.65685 400 322 L 400 303 C 400 301.34315 401.34315 300 403 300 Z" fill="white"/>
        <path d="M 403 300 L 422 300 C 423.65685 300 425 301.34315 425 303 L 425 322 C 425 323.65685 423.65685 325 422 325 L 403 325 C 401.34315 325 400 323.65685 400 322 L 400 303 C 400 301.34315 401.34315 300 403 300 Z" stroke="black" stroke-linecap="round" stroke-linejoin="round" stroke-width="2"/>
        <text transform="translate(401.7 305.5)" fill="black">
          <tspan font-family="Fira Code" font-size="12" fill="black" x="0" y="11">ver</tspan>
        </text>
      </g>
      <g id="Graphic_32">
        <path d="M 478 300 L 497 300 C 498.65685 300 500 301.34315 500 303 L 500 322 C 500 323.65685 498.65685 325 497 325 L 478 325 C 476.34315 325 475 323.65685 475 322 L 475 303 C 475 301.34315 476.34315 300 478 300 Z" fill="white"/>
        <path d="M 478 300 L 497 300 C 498.65685 300 500 301.34315 500 303 L 500 322 C 500 323.65685 498.65685 325 497 325 L 478 325 C 476.34315 325 475 323.65685 475 322 L 475 303 C 475 301.34315 476.34315 300 478 300 Z" stroke="black" stroke-linecap="round" stroke-linejoin="round" stroke-width="2"/>
        <text transform="translate(480.3 305.5)" fill="black">
          <tspan font-family="Fira Code" font-size="12" fill="black" x="7274181e-19" y="11">HT</tspan>
        </text>
      </g>
      <g id="Graphic_33">
        <path d="M 503 300 L 522 300 C 523.65685 300 525 301.34315 525 303 L 525 322 C 525 323.65685 523.65685 325 522 325 L 503 325 C 501.34315 325 500 323.65685 500 322 L 500 303 C 500 301.34315 501.34315 300 503 300 Z" fill="white"/>
        <path d="M 503 300 L 522 300 C 523.65685 300 525 301.34315 525 303 L 525 322 C 525 323.65685 523.65685 325 522 325 L 503 325 C 501.34315 325 500 323.65685 500 322 L 500 303 C 500 301.34315 501.34315 300 503 300 Z" stroke="black" stroke-linecap="round" stroke-linejoin="round" stroke-width="2"/>
        <text transform="translate(508.9 305.5)" fill="black">
          <tspan font-family="Fira Code" font-size="12" fill="black" x="36370906e-20" y="11">0</tspan>
        </text>
      </g>
      <g id="Graphic_34">
        <path d="M 528 300 L 547 300 C 548.65685 300 550 301.34315 550 303 L 550 322 C 550 323.65685 548.65685 325 547 325 L 528 325 C 526.34315 325 525 323.65685 525 322 L 525 303 C 525 301.34315 526.34315 300 528 300 Z" fill="white"/>
        <path d="M 528 300 L 547 300 C 548.65685 300 550 301.34315 550 303 L 550 322 C 550 323.65685 548.65685 325 547 325 L 528 325 C 526.34315 325 525 323.65685 525 322 L 525 303 C 525 301.34315 526.34315 300 528 300 Z" stroke="black" stroke-linecap="round" stroke-linejoin="round" stroke-width="2"/>
        <text transform="translate(533.9 305.5)" fill="black">
          <tspan font-family="Fira Code" font-size="12" fill="black" x="36370906e-20" y="11">0</tspan>
        </text>
      </g>
      <g id="Graphic_43">
        <path d="M 428 300 L 472 300 C 473.65685 300 475 301.34315 475 303 L 475 322 C 475 323.65685 473.65685 325 472 325 L 428 325 C 426.34315 325 425 323.65685 425 322 L 425 303 C 425 301.34315 426.34315 300 428 300 Z" stroke="black" stroke-linecap="round" stroke-linejoin="round" stroke-width="2"/>
        <text transform="translate(430 305.5)" fill="black">
          <tspan font-family="Fira Code" font-size="12" fill="black" x="9.2" y="11">tag</tspan>
        </text>
      </g>
      <g id="Graphic_44">
        <path d="M 553 300 L 597 300 C 598.65685 300 600 301.34315 600 303 L 600 322 C 600 323.65685 598.65685 325 597 325 L 553 325 C 551.34315 325 550 323.65685 550 322 L 550 303 C 550 301.34315 551.34315 300 553 300 Z" stroke="black" stroke-linecap="round" stroke-linejoin="round" stroke-width="2"/>
        <text transform="translate(555 305.5)" fill="black">
          <tspan font-family="Fira Code" font-size="12" fill="black" x="5.6" y="11">hash</tspan>
        </text>
      </g>
      <g id="Graphic_38">
        <text transform="translate(113.184 265.5)" fill="black">
          <tspan font-family="Fira Sans" font-style="italic" font-size="12" fill="black" x="0" y="13">bytes 0..16</tspan>
        </text>
      </g>
      <g id="Graphic_39">
        <text transform="translate(113.184 303)" fill="black">
          <tspan font-family="Fira Sans" font-style="italic" font-size="12" fill="black" x="0" y="13">bytes 16..32</tspan>
        </text>
      </g>
      <g id="Graphic_19">
        <path d="M 405 262.5 L 595 262.5 C 597.7614 262.5 600 264.73858 600 267.5 L 600 282.5 C 600 285.26142 597.7614 287.5 595 287.5 L 405 287.5 C 402.2386 287.5 400 285.26142 400 282.5 L 400 267.5 C 400 264.73858 402.2386 262.5 405 262.5 Z" stroke="black" stroke-linecap="round" stroke-linejoin="round" stroke-width="2"/>
        <text transform="translate(405 268)" fill="black">
          <tspan font-family="Fira Code" font-size="12" fill="black" x="55.4" y="11">data length</tspan>
        </text>
      </g>
      <g id="Graphic_42">
        <path d="M 192.5 300 L 382.5 300 C 385.26142 300 387.5 302.23858 387.5 305 L 387.5 320 C 387.5 322.76142 385.26142 325 382.5 325 L 192.5 325 C 189.73858 325 187.5 322.76142 187.5 320 L 187.5 305 C 187.5 302.23858 189.73858 300 192.5 300 Z" stroke="black" stroke-linecap="round" stroke-linejoin="round" stroke-width="2"/>
        <text transform="translate(192.5 305.5)" fill="black">
          <tspan font-family="Fira Code" font-size="12" fill="black" x="62.6" y="11">data hash</tspan>
        </text>
      </g>
    </g>
  </g>
</svg>
